<svg xmlns="http://www.w3.org/2000/svg" version="1.1" xmlns:xlink="http://www.w3.org/1999/xlink" xmlns:svgjs="http://svgjs.dev/svgjs" width="1440" height="560" preserveAspectRatio="none" viewBox="0 0 1440 560">
    <g mask="url(&quot;#SvgjsMask1018&quot;)" fill="none">
        <path d="M1536 560L0 560 L0 287.16Q96.68 263.84, 120 360.52Q147.64 316.16, 192 343.8Q223.35 255.15, 312 286.5Q356.59 259.09, 384 303.68Q465.32 265, 504 346.33Q559.95 330.28, 576 386.24Q592.55 282.79, 696 299.34Q739.81 271.14, 768 314.95Q824.07 299.02, 840 355.09Q888.52 331.61, 912 380.12Q914.89 311.01, 984 313.91Q1038.91 248.83, 1104 303.74Q1181.19 260.93, 1224 338.12Q1290.42 332.55, 1296 398.97Q1342.55 325.52, 1416 372.07Q1461.89 297.96, 1536 343.85z" fill="rgba(25, 55, 103, 1)"></path>
        <path d="M1560 560L0 560 L0 476.14Q29.09 385.23, 120 414.32Q199.15 373.47, 240 452.61Q265.95 406.56, 312 432.52Q321.06 369.58, 384 378.65Q456.51 331.16, 504 403.68Q595.5 375.18, 624 466.68Q670.5 441.19, 696 487.69Q700.95 420.64, 768 425.59Q819.61 357.2, 888 408.81Q938.2 387.01, 960 437.22Q991.78 349, 1080 380.79Q1161.05 341.84, 1200 422.88Q1288.46 391.34, 1320 479.8Q1362.78 402.58, 1440 445.36Q1474.02 359.38, 1560 393.41z" fill="rgba(53, 108, 177, 1)"></path>
        <path d="M1464 560L0 560 L0 484.5Q47.7 460.2, 72 507.9Q148.35 512.25, 144 588.6Q122.77 495.37, 216 474.13Q255.31 441.44, 288 480.74Q342.31 463.06, 360 517.37Q401.08 486.45, 432 527.53Q450.23 473.76, 504 491.99Q571.19 439.19, 624 506.38Q674.46 484.84, 696 535.3Q711.66 478.96, 768 494.63Q816.1 470.73, 840 518.83Q893.72 452.55, 960 506.27Q1055.05 481.32, 1080 576.36Q1087.53 511.89, 1152 519.43Q1189.35 436.77, 1272 474.12Q1315.49 445.61, 1344 489.09Q1454.09 479.17, 1464 589.26z" fill="rgba(255, 255, 255, 1)"></path>
    </g>
    <defs>
        <mask id="SvgjsMask1018">
            <rect width="1440" height="560" fill="#ffffff"></rect>
        </mask>
    </defs>
</svg>